<svg xmlns="http://www.w3.org/2000/svg" width="1384" height="420" viewBox="0 0 1384 420"><rect width="1384" height="420" fill="#f2f2f7"/><defs><filter id="lift" x="-0.2" y="-0.2" width="1.4" height="1.4"><feDropShadow dx="0" dy="10" stdDeviation="12" flood-color="#1c1c3c" flood-opacity="0.25"/></filter></defs><clipPath id="c0"><rect x="48" y="48" width="280" height="280" rx="62.64"/></clipPath><rect x="48" y="48" width="280" height="280" rx="62.64" fill="#000" filter="url(#lift)"/><image href="1-horizonte.svg" x="48" y="48" width="280" height="280" clip-path="url(#c0)"/><text x="188.0" y="380" text-anchor="middle" font-family="-apple-system, Helvetica Neue, Segoe UI, Arial, sans-serif" font-size="28" font-weight="600" fill="#1c1c1e">1. Horizonte</text><clipPath id="c1"><rect x="384" y="48" width="280" height="280" rx="62.64"/></clipPath><rect x="384" y="48" width="280" height="280" rx="62.64" fill="#000" filter="url(#lift)"/><image href="2-despertador.svg" x="384" y="48" width="280" height="280" clip-path="url(#c1)"/><text x="524.0" y="380" text-anchor="middle" font-family="-apple-system, Helvetica Neue, Segoe UI, Arial, sans-serif" font-size="28" font-weight="600" fill="#1c1c1e">2. Despertador</text><clipPath id="c2"><rect x="720" y="48" width="280" height="280" rx="62.64"/></clipPath><rect x="720" y="48" width="280" height="280" rx="62.64" fill="#000" filter="url(#lift)"/><image href="3-ventana.svg" x="720" y="48" width="280" height="280" clip-path="url(#c2)"/><text x="860.0" y="380" text-anchor="middle" font-family="-apple-system, Helvetica Neue, Segoe UI, Arial, sans-serif" font-size="28" font-weight="600" fill="#1c1c1e">3. Ventana</text><clipPath id="c3"><rect x="1056" y="48" width="280" height="280" rx="62.64"/></clipPath><rect x="1056" y="48" width="280" height="280" rx="62.64" fill="#000" filter="url(#lift)"/><image href="4-isometrica.svg" x="1056" y="48" width="280" height="280" clip-path="url(#c3)"/><text x="1196.0" y="380" text-anchor="middle" font-family="-apple-system, Helvetica Neue, Segoe UI, Arial, sans-serif" font-size="28" font-weight="600" fill="#1c1c1e">4. Isométrica</text></svg>
